<svg width="1400" height="720" viewBox="0 0 1400 720" fill="none" xmlns="http://www.w3.org/2000/svg">
  <defs>
    <linearGradient id="bg" x1="40" y1="20" x2="1360" y2="700" gradientUnits="userSpaceOnUse">
      <stop stop-color="#FFF7FB"/>
      <stop offset="1" stop-color="#FDFBFF"/>
    </linearGradient>
    <style>
      .title { font: 700 34px 'Inter', 'Segoe UI', sans-serif; fill: #341A28; }
      .sub { font: 500 18px 'Inter', 'Segoe UI', sans-serif; fill: #745262; }
      .chip { font: 700 13px 'Inter', 'Segoe UI', sans-serif; fill: #FFFFFF; letter-spacing: 0.07em; text-transform: uppercase; }
      .section { font: 700 20px 'Inter', 'Segoe UI', sans-serif; fill: #4E2B38; }
      .body { font: 500 15px 'Inter', 'Segoe UI', sans-serif; fill: #6D4D5C; }
      .mono { font: 700 14px 'SFMono-Regular', 'Menlo', monospace; fill: #5B3544; }
    </style>
  </defs>

  <rect x="20" y="20" width="1360" height="680" rx="34" fill="url(#bg)"/>
  <text x="84" y="108" class="title">Case snapshot: hidden repair brain</text>
  <text x="84" y="144" class="sub">When a second unseen agent or repair prompt rewrites a good answer into a worse one.</text>

  <rect x="84" y="190" width="388" height="430" rx="28" fill="#FFF9EC" stroke="#F0DEB2"/>
  <text x="118" y="238" class="section">What the user thinks is happening</text>
  <text x="118" y="288" class="body">The agent answered once.</text>
  <text x="118" y="324" class="body">The platform just rendered or delivered it.</text>

  <rect x="118" y="384" width="320" height="164" rx="22" fill="#FFF3D9" stroke="#EFD29B"/>
  <text x="146" y="424" class="mono">tool result → final answer → send</text>
  <text x="146" y="460" class="body">Simple, inspectable, expected.</text>

  <rect x="510" y="190" width="388" height="430" rx="28" fill="#FFF5F8" stroke="#F2D1DB"/>
  <rect x="542" y="220" width="128" height="30" rx="15" fill="#FF6A8B"/>
  <text x="568" y="240" class="chip">Actual path</text>
  <text x="542" y="300" class="body">tool result → answer draft</text>
  <text x="542" y="336" class="body">→ hidden repair prompt / second LLM pass</text>
  <text x="542" y="372" class="body">→ downgraded or mutated output</text>
  <text x="542" y="408" class="body">→ user receives the damaged version</text>

  <rect x="542" y="462" width="324" height="104" rx="20" fill="#FDF4FF" stroke="#E5D2F0"/>
  <text x="572" y="500" class="body">Transport is pretending to be a renderer,</text>
  <text x="572" y="532" class="body">but it is acting like another agent.</text>

  <rect x="936" y="190" width="380" height="430" rx="28" fill="#FFFDF7" stroke="#F1E0B4"/>
  <text x="970" y="238" class="section">What the skill checks</text>
  <text x="970" y="288" class="body">• whether delivery fallback spins up another LLM</text>
  <text x="970" y="324" class="body">• whether repair logic can change semantics, not just format</text>
  <text x="970" y="360" class="body">• whether transport code behaves like a covert agent layer</text>
  <text x="970" y="396" class="body">• whether evidence survives the downgrade path intact</text>

  <rect x="970" y="462" width="312" height="110" rx="20" fill="#FFF2D8" stroke="#EFD39A"/>
  <text x="1000" y="500" class="mono">render failures ≠ excuse</text>
  <text x="1000" y="532" class="mono">to invent a second brain</text>
</svg>
